<svg class="svg-icon" style="width: 1em;height: 1em;vertical-align: middle;fill: currentColor;overflow: hidden;" viewBox="0 0 1024 1024" version="1.1" xmlns="http://www.w3.org/2000/svg"><path d="M744 96H280c-35.4 0-64 28.6-64 64v704c0 35.4 28.6 64 64 64h464c35.4 0 64-28.6 64-64V160c0-35.4-28.6-64-64-64z m-24 544v160c0 26.6-21.4 48-48 48s-48-21.4-48-48v-160c0-26.6 21.4-48 48-48s48 21.4 48 48z m0-160c0 26.6-21.4 48-48 48s-48-21.4-48-48 21.4-48 48-48 48 21.4 48 48z m-160 320c0 26.6-21.4 48-48 48s-48-21.4-48-48 21.4-48 48-48 48 21.4 48 48z m0-160c0 26.6-21.4 48-48 48s-48-21.4-48-48 21.4-48 48-48 48 21.4 48 48z m0-160c0 26.6-21.4 48-48 48s-48-21.4-48-48 21.4-48 48-48 48 21.4 48 48z m-160 320c0 26.6-21.4 48-48 48s-48-21.4-48-48 21.4-48 48-48 48 21.4 48 48z m0-160c0 26.6-21.4 48-48 48s-48-21.4-48-48 21.4-48 48-48 48 21.4 48 48z m0-160c0 26.6-21.4 48-48 48s-48-21.4-48-48 21.4-48 48-48 48 21.4 48 48z m-96-160v-96c0-17.6 14.4-32 32-32h352c17.6 0 32 14.4 32 32v96c0 17.6-14.4 32-32 32H336c-17.6 0-32-14.4-32-32z"  /></svg>